<?xml version="1.0" encoding="utf-8"?>
<!-- Generator: Adobe Illustrator 23.0.1, SVG Export Plug-In . SVG Version: 6.00 Build 0)  -->
<svg version="1.1" id="Layer_1" xmlns="http://www.w3.org/2000/svg" xmlns:xlink="http://www.w3.org/1999/xlink" x="0px" y="0px"
	 viewBox="0 0 323.62 43.98" style="enable-background:new 0 0 323.62 43.98;" xml:space="preserve">
<style type="text/css">
	.st0{fill:#666666;}
</style>
<image style="display:none;overflow:visible;" width="345" height="49" xlink:href="cpt-newsletter-header.png"  transform="matrix(1 0 0 1 -17.3558 -3.6596)">
</image>
<image style="display:none;overflow:visible;" width="351" height="87" xlink:href="cpt-newsletter-header-sticky.png"  transform="matrix(1 0 0 1 -11.0361 -22.5294)">
</image>
<g>
	<g>
		<path class="st0" d="M26.31,30.67h-3.4L8.88,9.7H8.74c0.19,2.46,0.28,4.72,0.28,6.77v14.2H6.26V5.69h3.37l13.99,20.88h0.14
			c-0.02-0.31-0.08-1.3-0.16-2.96s-0.11-2.86-0.09-3.58V5.69h2.79V30.67z"/>
		<path class="st0" d="M41.05,31.01c-2.84,0-5.09-0.84-6.73-2.53c-1.64-1.69-2.47-4.03-2.47-7.02c0-3.02,0.76-5.42,2.29-7.2
			s3.58-2.67,6.15-2.67c2.41,0,4.32,0.77,5.72,2.32c1.4,1.54,2.11,3.58,2.11,6.11v1.79H34.87c0.06,2.2,0.63,3.87,1.71,5.01
			c1.08,1.14,2.61,1.71,4.57,1.71c2.07,0,4.12-0.42,6.14-1.26v2.53c-1.03,0.43-2,0.74-2.92,0.93
			C43.46,30.92,42.35,31.01,41.05,31.01z M40.26,13.98c-1.54,0-2.78,0.49-3.69,1.47c-0.92,0.98-1.46,2.34-1.62,4.07H45
			c0-1.79-0.41-3.16-1.23-4.11C42.95,14.45,41.78,13.98,40.26,13.98z"/>
		<path class="st0" d="M68.8,30.67l-3.53-10.99c-0.22-0.67-0.64-2.2-1.25-4.58h-0.14c-0.47,1.99-0.88,3.53-1.23,4.61l-3.63,10.95
			h-3.37L50.4,11.94h3.05c1.24,4.71,2.19,8.29,2.83,10.75c0.65,2.46,1.02,4.12,1.11,4.97h0.14c0.13-0.65,0.34-1.49,0.62-2.52
			c0.29-1.03,0.54-1.85,0.75-2.45l3.53-10.75h3.16l3.44,10.75c0.66,1.96,1.1,3.61,1.33,4.94h0.14c0.05-0.41,0.17-1.04,0.38-1.9
			c0.2-0.85,1.42-5.45,3.66-13.79h3.02l-5.32,18.73H68.8z"/>
		<path class="st0" d="M93.45,25.56c0,1.74-0.67,3.09-2,4.03c-1.33,0.95-3.21,1.42-5.62,1.42c-2.55,0-4.54-0.39-5.97-1.18V27.2
			c0.92,0.46,1.92,0.81,2.97,1.08c1.06,0.26,2.08,0.39,3.06,0.39c1.52,0,2.69-0.24,3.51-0.71c0.82-0.47,1.23-1.19,1.23-2.16
			c0-0.73-0.32-1.35-0.97-1.87c-0.65-0.52-1.92-1.13-3.8-1.84c-1.79-0.65-3.06-1.22-3.82-1.7c-0.75-0.48-1.32-1.03-1.69-1.65
			s-0.55-1.35-0.55-2.2c0-1.53,0.64-2.73,1.91-3.61c1.27-0.88,3.02-1.32,5.25-1.32c2.07,0,4.09,0.41,6.07,1.23l-1.04,2.31
			c-1.93-0.77-3.68-1.16-5.25-1.16c-1.38,0-2.42,0.21-3.12,0.63c-0.7,0.42-1.05,1-1.05,1.74c0,0.5,0.13,0.93,0.4,1.28
			c0.26,0.35,0.69,0.69,1.27,1.01c0.58,0.32,1.71,0.78,3.37,1.38c2.28,0.81,3.82,1.62,4.62,2.44
			C93.05,23.29,93.45,24.32,93.45,25.56z"/>
		<path class="st0" d="M101.11,30.67h-2.91V4.08h2.91V30.67z"/>
		<path class="st0" d="M115.41,31.01c-2.84,0-5.09-0.84-6.73-2.53c-1.64-1.69-2.47-4.03-2.47-7.02c0-3.02,0.76-5.42,2.29-7.2
			s3.58-2.67,6.15-2.67c2.41,0,4.32,0.77,5.72,2.32c1.4,1.54,2.11,3.58,2.11,6.11v1.79h-13.25c0.06,2.2,0.63,3.87,1.71,5.01
			c1.08,1.14,2.61,1.71,4.57,1.71c2.07,0,4.12-0.42,6.14-1.26v2.53c-1.03,0.43-2,0.74-2.92,0.93
			C117.82,30.92,116.71,31.01,115.41,31.01z M114.62,13.98c-1.54,0-2.78,0.49-3.69,1.47c-0.92,0.98-1.46,2.34-1.62,4.07h10.06
			c0-1.79-0.41-3.16-1.23-4.11C117.31,14.45,116.14,13.98,114.62,13.98z"/>
		<path class="st0" d="M133.66,28.67c0.51,0,1.01-0.04,1.49-0.11c0.48-0.07,0.86-0.15,1.14-0.23v2.17c-0.32,0.15-0.78,0.27-1.4,0.37
			s-1.17,0.15-1.66,0.15c-3.72,0-5.58-1.91-5.58-5.72V14.15h-2.76v-1.37l2.76-1.18l1.23-4h1.69v4.34h5.58v2.2h-5.58v11.02
			c0,1.13,0.27,1.99,0.82,2.6C131.95,28.37,132.7,28.67,133.66,28.67z"/>
		<path class="st0" d="M146.35,28.67c0.51,0,1.01-0.04,1.49-0.11c0.48-0.07,0.86-0.15,1.14-0.23v2.17c-0.32,0.15-0.78,0.27-1.4,0.37
			s-1.17,0.15-1.66,0.15c-3.72,0-5.58-1.91-5.58-5.72V14.15h-2.76v-1.37l2.76-1.18l1.23-4h1.69v4.34h5.58v2.2h-5.58v11.02
			c0,1.13,0.27,1.99,0.82,2.6C144.64,28.37,145.39,28.67,146.35,28.67z"/>
		<path class="st0" d="M160.95,31.01c-2.84,0-5.09-0.84-6.73-2.53c-1.64-1.69-2.47-4.03-2.47-7.02c0-3.02,0.76-5.42,2.29-7.2
			c1.53-1.78,3.58-2.67,6.15-2.67c2.41,0,4.32,0.77,5.72,2.32c1.4,1.54,2.11,3.58,2.11,6.11v1.79h-13.25
			c0.06,2.2,0.63,3.87,1.71,5.01c1.08,1.14,2.61,1.71,4.57,1.71c2.07,0,4.12-0.42,6.14-1.26v2.53c-1.03,0.43-2,0.74-2.92,0.93
			C163.36,30.92,162.25,31.01,160.95,31.01z M160.16,13.98c-1.54,0-2.78,0.49-3.69,1.47c-0.92,0.98-1.46,2.34-1.62,4.07h10.06
			c0-1.79-0.41-3.16-1.23-4.11C162.85,14.45,161.68,13.98,160.16,13.98z"/>
		<path class="st0" d="M181.77,11.6c0.85,0,1.62,0.07,2.3,0.21l-0.4,2.63c-0.8-0.17-1.5-0.26-2.11-0.26c-1.56,0-2.89,0.62-3.99,1.85
			c-1.11,1.23-1.66,2.76-1.66,4.6v10.05h-2.91V11.94h2.4l0.33,3.47h0.14c0.71-1.22,1.57-2.16,2.58-2.82
			C179.46,11.93,180.56,11.6,181.77,11.6z"/>
		<path class="st0" d="M211.92,24.02c0,2.2-0.82,3.91-2.46,5.14c-1.64,1.23-3.86,1.85-6.67,1.85c-3.04,0-5.38-0.38-7.02-1.14v-2.8
			c1.05,0.43,2.2,0.77,3.44,1.03c1.24,0.25,2.47,0.38,3.69,0.38c1.99,0,3.49-0.37,4.49-1.1c1.01-0.74,1.51-1.76,1.51-3.07
			c0-0.87-0.18-1.57-0.54-2.13c-0.36-0.55-0.95-1.06-1.79-1.53c-0.84-0.47-2.11-1-3.82-1.59c-2.39-0.83-4.09-1.82-5.12-2.96
			c-1.02-1.14-1.54-2.63-1.54-4.46c0-1.93,0.74-3.46,2.23-4.6c1.49-1.14,3.45-1.71,5.9-1.71c2.55,0,4.9,0.46,7.04,1.37l-0.93,2.53
			c-2.12-0.87-4.18-1.3-6.18-1.3c-1.58,0-2.81,0.33-3.7,0.99c-0.89,0.66-1.33,1.58-1.33,2.75c0,0.87,0.16,1.58,0.49,2.13
			c0.33,0.55,0.88,1.06,1.66,1.52c0.78,0.46,1.97,0.97,3.57,1.53c2.69,0.93,4.54,1.94,5.55,3.01S211.92,22.32,211.92,24.02z"/>
		<path class="st0" d="M216.48,6.87c0-0.65,0.16-1.12,0.49-1.43c0.33-0.3,0.74-0.45,1.23-0.45c0.47,0,0.87,0.15,1.21,0.46
			c0.34,0.31,0.51,0.78,0.51,1.42c0,0.64-0.17,1.11-0.51,1.43c-0.34,0.31-0.74,0.47-1.21,0.47c-0.49,0-0.9-0.16-1.23-0.47
			C216.65,7.98,216.48,7.5,216.48,6.87z M219.64,30.67h-2.91V11.94h2.91V30.67z"/>
		<path class="st0" d="M241.56,11.94v1.79L238,14.15c0.33,0.4,0.62,0.92,0.88,1.56c0.26,0.64,0.39,1.37,0.39,2.18
			c0,1.83-0.64,3.3-1.93,4.39s-3.05,1.64-5.3,1.64c-0.57,0-1.11-0.05-1.61-0.14c-1.24,0.64-1.86,1.44-1.86,2.41
			c0,0.51,0.22,0.89,0.65,1.14c0.43,0.25,1.18,0.37,2.23,0.37h3.4c2.08,0,3.68,0.43,4.8,1.28c1.12,0.85,1.68,2.1,1.68,3.72
			c0,2.07-0.85,3.65-2.56,4.74c-1.71,1.09-4.2,1.63-7.48,1.63c-2.52,0-4.46-0.46-5.82-1.37c-1.36-0.91-2.04-2.2-2.04-3.86
			c0-1.14,0.37-2.12,1.12-2.96c0.75-0.83,1.8-1.4,3.16-1.69c-0.49-0.22-0.9-0.55-1.24-1.01c-0.33-0.46-0.5-0.98-0.5-1.59
			c0-0.68,0.19-1.28,0.56-1.79c0.37-0.51,0.96-1.01,1.77-1.49c-0.99-0.4-1.8-1.08-2.43-2.03c-0.63-0.96-0.94-2.05-0.94-3.28
			c0-2.05,0.63-3.63,1.9-4.74c1.26-1.11,3.05-1.67,5.37-1.67c1.01,0,1.91,0.11,2.72,0.34H241.56z M226.22,33.82
			c0,1.01,0.44,1.78,1.32,2.31c0.88,0.52,2.14,0.79,3.77,0.79c2.45,0,4.26-0.36,5.43-1.07c1.18-0.71,1.76-1.68,1.76-2.9
			c0-1.01-0.32-1.72-0.96-2.11c-0.64-0.39-1.85-0.59-3.63-0.59h-3.49c-1.32,0-2.35,0.31-3.09,0.92
			C226.59,31.78,226.22,32.67,226.22,33.82z M227.8,17.94c0,1.31,0.38,2.3,1.14,2.97c0.76,0.67,1.82,1.01,3.18,1.01
			c2.84,0,4.26-1.34,4.26-4.03c0-2.81-1.44-4.22-4.32-4.22c-1.37,0-2.42,0.36-3.16,1.08S227.8,16.53,227.8,17.94z"/>
		<path class="st0" d="M258.67,30.67V18.56c0-1.53-0.36-2.67-1.07-3.42s-1.83-1.13-3.35-1.13c-2.01,0-3.49,0.53-4.42,1.59
			c-0.94,1.06-1.4,2.81-1.4,5.25v9.83h-2.91V11.94h2.37l0.47,2.56h0.14c0.6-0.92,1.43-1.64,2.51-2.14s2.28-0.76,3.6-0.76
			c2.32,0,4.06,0.54,5.23,1.63c1.17,1.09,1.75,2.83,1.75,5.22v12.22H258.67z"/>
		<path class="st0" d="M296.72,5.69v16.17c0,2.85-0.88,5.09-2.65,6.72c-1.77,1.63-4.19,2.44-7.28,2.44s-5.48-0.82-7.17-2.46
			c-1.69-1.64-2.54-3.9-2.54-6.77V5.69h2.98v16.3c0,2.08,0.58,3.69,1.75,4.8c1.17,1.12,2.89,1.67,5.16,1.67c2.16,0,3.83-0.56,5-1.68
			c1.17-1.12,1.75-2.73,1.75-4.83V5.69H296.72z"/>
		<path class="st0" d="M312.03,31.01c-1.25,0-2.4-0.23-3.43-0.67c-1.04-0.45-1.9-1.14-2.61-2.08h-0.21
			c0.14,1.09,0.21,2.13,0.21,3.11v7.71h-2.91V11.94h2.37l0.4,2.56h0.14c0.75-1.03,1.62-1.77,2.62-2.22
			c0.99-0.46,2.13-0.68,3.42-0.68c2.55,0,4.52,0.85,5.91,2.55c1.39,1.7,2.08,4.08,2.08,7.14c0,3.08-0.71,5.47-2.12,7.17
			S314.53,31.01,312.03,31.01z M311.6,14.01c-1.97,0-3.39,0.53-4.26,1.59c-0.88,1.06-1.33,2.75-1.35,5.06v0.63
			c0,2.63,0.45,4.52,1.35,5.65c0.9,1.13,2.35,1.7,4.33,1.7c1.66,0,2.96-0.66,3.91-1.97c0.94-1.31,1.41-3.12,1.41-5.42
			c0-2.34-0.47-4.13-1.41-5.38C314.64,14.63,313.31,14.01,311.6,14.01z"/>
	</g>
</g>
</svg>
