<?xml version="1.0" encoding="utf-8"?>
<!-- Generator: Adobe Illustrator 23.0.1, SVG Export Plug-In . SVG Version: 6.00 Build 0)  -->
<svg version="1.1" xmlns="http://www.w3.org/2000/svg" xmlns:xlink="http://www.w3.org/1999/xlink" x="0px" y="0px"
	 viewBox="0 0 657.23 347.62" style="enable-background:new 0 0 657.23 347.62;" xml:space="preserve">
<style type="text/css">
	.st0{fill:#FFC10E;}
	.st1{fill:#FFFFFF;}
	.st2{display:none;}
</style>
<g id="Layer_3">
	<polygon class="st0" points="5.34,3.69 5.34,27.33 595.6,27.33 595.6,45.59 5.34,45.59 5.34,323.2 632.68,323.2 632.68,3.69 	"/>
</g>
<g id="Layer_4">
	<polygon class="st0" points="6.06,322.13 632.01,322.13 632.01,4.98 654.29,26.7 654.29,346.28 28.77,346.28 	"/>
	<g>
		<polygon points="33.21,346.28 28.32,346.28 5.32,322.83 10.21,322.83 		"/>
		<polygon points="44.21,346.28 39.32,346.28 16.32,322.83 21.21,322.83 		"/>
		<polygon points="54.2,346.28 49.32,346.28 26.32,322.83 31.2,322.83 		"/>
		<polygon points="64.2,346.28 59.31,346.28 36.31,322.83 41.2,322.83 		"/>
		<polygon points="74.2,346.28 69.31,346.28 46.31,322.83 51.2,322.83 		"/>
		<polygon points="84.2,346.28 79.31,346.28 56.31,322.83 61.2,322.83 		"/>
		<polygon points="94.2,346.28 89.31,346.28 66.31,322.83 71.2,322.83 		"/>
		<polygon points="104.19,346.28 99.31,346.28 76.31,322.83 81.19,322.83 		"/>
		<polygon points="114.19,346.28 109.31,346.28 86.31,322.83 91.19,322.83 		"/>
		<polygon points="124.19,346.28 119.3,346.28 96.3,322.83 101.19,322.83 		"/>
		<polygon points="134.19,346.28 129.3,346.28 106.3,322.83 111.19,322.83 		"/>
		<polygon points="144.19,346.28 139.3,346.28 116.3,322.83 121.19,322.83 		"/>
		<polygon points="154.19,346.28 149.3,346.28 126.3,322.83 131.19,322.83 		"/>
		<polygon points="164.18,346.28 159.3,346.28 136.3,322.83 141.18,322.83 		"/>
		<polygon points="174.18,346.28 169.3,346.28 146.3,322.83 151.18,322.83 		"/>
		<polygon points="184.18,346.28 179.29,346.28 156.29,322.83 161.18,322.83 		"/>
		<polygon points="194.18,346.28 189.29,346.28 166.29,322.83 171.18,322.83 		"/>
		<polygon points="204.18,346.28 199.29,346.28 176.29,322.83 181.18,322.83 		"/>
		<polygon points="214.18,346.28 209.29,346.28 186.29,322.83 191.18,322.83 		"/>
		<polygon points="224.17,346.28 219.29,346.28 196.29,322.83 201.17,322.83 		"/>
		<polygon points="234.17,346.28 229.28,346.28 206.28,322.83 211.17,322.83 		"/>
		<polygon points="244.17,346.28 239.28,346.28 216.28,322.83 221.17,322.83 		"/>
		<polygon points="254.17,346.28 249.28,346.28 226.28,322.83 231.17,322.83 		"/>
		<polygon points="264.17,346.28 259.28,346.28 236.28,322.83 241.17,322.83 		"/>
		<polygon points="274.16,346.28 269.28,346.28 246.28,322.83 251.16,322.83 		"/>
		<polygon points="284.16,346.28 279.28,346.28 256.28,322.83 261.16,322.83 		"/>
		<polygon points="294.16,346.28 289.27,346.28 266.27,322.83 271.16,322.83 		"/>
		<polygon points="304.16,346.28 299.27,346.28 276.27,322.83 281.16,322.83 		"/>
		<polygon points="314.16,346.28 309.27,346.28 286.27,322.83 291.16,322.83 		"/>
		<polygon points="324.16,346.28 319.27,346.28 296.27,322.83 301.16,322.83 		"/>
		<polygon points="334.15,346.28 329.27,346.28 306.27,322.83 311.15,322.83 		"/>
		<polygon points="344.15,346.28 339.27,346.28 316.27,322.83 321.15,322.83 		"/>
		<polygon points="354.15,346.28 349.26,346.28 326.26,322.83 331.15,322.83 		"/>
		<polygon points="364.15,346.28 359.26,346.28 336.26,322.83 341.15,322.83 		"/>
		<polygon points="374.15,346.28 369.26,346.28 346.26,322.83 351.15,322.83 		"/>
		<polygon points="384.15,346.28 379.26,346.28 356.26,322.83 361.15,322.83 		"/>
		<polygon points="394.14,346.28 389.26,346.28 366.26,322.83 371.14,322.83 		"/>
		<polygon points="404.14,346.28 399.25,346.28 376.25,322.83 381.14,322.83 		"/>
		<polygon points="414.14,346.28 409.25,346.28 386.25,322.83 391.14,322.83 		"/>
		<polygon points="424.14,346.28 419.25,346.28 396.25,322.83 401.14,322.83 		"/>
		<polygon points="434.14,346.28 429.25,346.28 406.25,322.83 411.14,322.83 		"/>
		<polygon points="444.13,346.28 439.25,346.28 416.25,322.83 421.13,322.83 		"/>
		<polygon points="454.13,346.28 449.25,346.28 426.25,322.83 431.13,322.83 		"/>
		<polygon points="464.13,346.28 459.24,346.28 436.24,322.83 441.13,322.83 		"/>
		<polygon points="474.13,346.28 469.24,346.28 446.24,322.83 451.13,322.83 		"/>
		<polygon points="484.13,346.28 479.24,346.28 456.24,322.83 461.13,322.83 		"/>
		<polygon points="494.13,346.28 489.24,346.28 466.24,322.83 471.13,322.83 		"/>
		<polygon points="504.12,346.28 499.24,346.28 476.24,322.83 481.12,322.83 		"/>
		<polygon points="514.12,346.28 509.24,346.28 486.24,322.83 491.12,322.83 		"/>
		<polygon points="524.12,346.28 519.23,346.28 496.23,322.83 501.12,322.83 		"/>
		<polygon points="534.12,346.28 529.23,346.28 506.23,322.83 511.12,322.83 		"/>
		<polygon points="544.12,346.28 539.23,346.28 516.23,322.83 521.12,322.83 		"/>
		<polygon points="554.12,346.28 549.23,346.28 526.23,322.83 531.12,322.83 		"/>
		<polygon points="564.11,346.28 559.23,346.28 536.23,322.83 541.11,322.83 		"/>
		<polygon points="574.11,346.28 569.22,346.28 546.22,322.83 551.11,322.83 		"/>
		<polygon points="584.11,346.28 579.22,346.28 556.22,322.83 561.11,322.83 		"/>
		<polygon points="594.11,346.28 589.22,346.28 566.22,322.83 571.11,322.83 		"/>
		<polygon points="604.11,346.28 599.22,346.28 576.22,322.83 581.11,322.83 		"/>
		<polygon points="614.1,346.28 609.22,346.28 586.22,322.83 591.1,322.83 		"/>
		<polygon points="624.1,346.28 619.22,346.28 596.22,322.83 601.1,322.83 		"/>
		<polygon points="634.1,346.28 629.21,346.28 606.21,322.83 611.1,322.83 		"/>
		<polygon points="644.1,346.28 639.21,346.28 616.21,322.83 621.1,322.83 		"/>
		<polygon points="654.1,346.28 649.21,346.28 626.21,322.83 631.1,322.83 		"/>
	</g>
	<g>
		<polygon points="654.29,334.85 654.21,339.41 632.46,317.59 632.46,312.86 		"/>
		<polygon points="654.29,324.87 654.21,329.44 632.46,307.61 632.46,302.88 		"/>
		<polygon points="654.29,314.89 654.21,319.46 632.46,297.63 632.46,292.91 		"/>
		<polygon points="654.29,304.91 654.21,309.48 632.46,287.65 632.46,282.93 		"/>
		<polygon points="654.29,294.93 654.21,299.5 632.46,277.67 632.46,272.95 		"/>
		<polygon points="654.29,284.96 654.21,289.52 632.46,267.7 632.46,262.97 		"/>
		<polygon points="654.29,274.98 654.21,279.55 632.46,257.72 632.46,253 		"/>
		<polygon points="654.29,265 654.21,269.57 632.46,247.74 632.46,243.02 		"/>
		<polygon points="654.29,255.02 654.21,259.59 632.46,237.76 632.46,233.04 		"/>
		<polygon points="654.29,245.05 654.21,249.61 632.46,227.79 632.46,223.06 		"/>
		<polygon points="654.29,235.07 654.21,239.64 632.46,217.81 632.46,213.08 		"/>
		<polygon points="654.29,225.09 654.21,229.66 632.46,207.83 632.46,203.11 		"/>
		<polygon points="654.29,215.11 654.21,219.68 632.46,197.85 632.46,193.13 		"/>
		<polygon points="654.29,205.13 654.21,209.7 632.46,187.87 632.46,183.15 		"/>
		<polygon points="654.29,195.16 654.21,199.72 632.46,177.9 632.46,173.17 		"/>
		<polygon points="654.29,185.18 654.21,189.75 632.46,167.92 632.46,163.19 		"/>
		<polygon points="654.29,175.2 654.21,179.77 632.46,157.94 632.46,153.22 		"/>
		<polygon points="654.29,165.22 654.21,169.79 632.46,147.96 632.46,143.24 		"/>
		<polygon points="654.29,155.25 654.21,159.81 632.46,137.99 632.46,133.26 		"/>
		<polygon points="654.29,145.27 654.21,149.84 632.46,128.01 632.46,123.28 		"/>
		<polygon points="654.29,135.29 654.21,139.86 632.46,118.03 632.46,113.31 		"/>
		<polygon points="654.29,125.31 654.21,129.88 632.46,108.05 632.46,103.33 		"/>
		<polygon points="654.29,115.33 654.21,119.9 632.46,98.07 632.46,93.35 		"/>
		<polygon points="654.29,105.36 654.21,109.92 632.46,88.1 632.46,83.37 		"/>
		<polygon points="654.29,95.38 654.21,99.95 632.46,78.12 632.46,73.39 		"/>
		<polygon points="654.29,85.4 654.21,89.97 632.46,68.14 632.46,63.42 		"/>
		<polygon points="654.29,75.42 654.21,79.99 632.46,58.16 632.46,53.44 		"/>
		<polygon points="654.29,65.45 654.21,70.01 632.46,48.19 632.46,43.46 		"/>
		<polygon points="654.29,55.47 654.21,60.04 632.46,38.21 632.46,33.48 		"/>
		<polygon points="654.29,45.49 654.21,50.06 632.46,28.23 632.46,23.51 		"/>
		<polygon points="654.29,35.51 654.21,40.08 632.46,18.25 632.46,13.53 		"/>
		<polygon points="654.29,25.53 654.21,30.1 632.46,8.27 632.46,3.55 		"/>
	</g>
</g>
<g id="Text">
	<g>
		<path d="M71.05,133.9H49.46c-5.9,0-8.88-2.69-8.88-9.95V80.81c0-7.27,2.98-10.03,8.88-10.03h21.59v14.46l-17.12,0.08v34.13h17.12
			V133.9z"/>
		<path d="M121.23,123.94c0,7.03-2.98,9.95-8.88,9.95H94.91c-5.58,0-8.88-2.76-8.88-9.95V80.81c0-6.71,2.98-10.03,8.88-10.03h17.44
			c5.64,0,8.88,2.84,8.88,10.03V123.94z M107.88,119.44V85.31h-8.49v34.13H107.88z"/>
		<path d="M172.71,133.9h-13.36V85.24h-8.49v48.66h-13.36V70.78h26.06c5.9,0,9.14,2.84,9.14,10.35V133.9z"/>
		<path d="M219.91,123.94c0,7.27-3.24,9.95-9.08,9.95h-21.85v-14.46h17.57v-10.11H198c-7.33,0-9.01-4.34-9.01-9.87V81.13
			c0-7.5,3.18-10.35,9.08-10.35h20.55v14.46h-16.27v9.64h8.43c6.22,0,9.14,3.16,9.14,10.74V123.94z"/>
		<path d="M269.51,85.24h-11.09v48.66h-13.36V85.24h-11.09V70.78h35.53V85.24z"/>
		<path d="M318.52,133.9h-13.36v-21.25h-7.59v21.25h-13.36V70.78h25.16c5.9,0,9.14,2.84,9.14,10.35v16.19c0,4.74-1.82,7.03-4.8,8.14
			v0.16c2.92,0.47,4.8,2.69,4.8,7.43V133.9z M305.16,98.27V85.24h-7.59v13.03H305.16z"/>
		<path d="M370,123.63c0,7.5-3.24,10.27-9.14,10.27h-16.99c-5.9,0-9.08-2.76-9.08-10.27V70.78h13.36v48.66h8.49V70.78H370V123.63z"
			/>
		<path d="M416.74,133.9h-21.59c-5.9,0-8.88-2.69-8.88-9.95V80.81c0-7.27,2.98-10.03,8.88-10.03h21.59v14.46l-17.12,0.08v34.13
			h17.12V133.9z"/>
		<path d="M465.69,85.24H454.6v48.66h-13.36V85.24h-11.09V70.78h35.53V85.24z"/>
		<path d="M493.76,133.9h-13.36V70.78h13.36V133.9z"/>
		<path d="M545.24,123.94c0,7.03-2.98,9.95-8.88,9.95h-17.44c-5.58,0-8.88-2.76-8.88-9.95V80.81c0-6.71,2.98-10.03,8.88-10.03h17.44
			c5.64,0,8.88,2.84,8.88,10.03V123.94z M531.88,119.44V85.31h-8.49v34.13H531.88z"/>
		<path d="M596.72,133.9h-13.36V85.24h-8.49v48.66h-13.36V70.78h26.06c5.9,0,9.14,2.84,9.14,10.35V133.9z"/>
	</g>
	<g>
		<path class="st1" d="M111.56,238.52c0,15.48-6.44,21.03-18.16,21.03H68.16v31.95H41.64V161.26H93.4
			c11.72,0,18.16,5.87,18.16,21.35V238.52z M85.03,229.88v-38.79H68.16v38.79H85.03z"/>
		<path class="st1" d="M193.97,291.5h-26.53v-43.85h-15.07v43.85h-26.53V161.26h49.96c11.72,0,18.16,5.87,18.16,21.35v33.41
			c0,9.78-3.61,14.51-9.53,16.79v0.33c5.79,0.98,9.53,5.54,9.53,15.32V291.5z M167.44,217.98v-26.89h-15.07v26.89H167.44z"/>
		<path class="st1" d="M279.47,270.96c0,14.51-5.92,20.54-17.64,20.54h-34.64c-11.07,0-17.64-5.71-17.64-20.54v-89
			c0-13.85,5.92-20.7,17.64-20.7h34.64c11.2,0,17.64,5.87,17.64,20.7V270.96z M252.95,261.67v-70.41h-16.87v70.41H252.95z"/>
	</g>
	<g>
		<path class="st1" d="M398.53,191.09h-22.31v100.4h-26.87v-100.4h-22.31v-29.83h71.48V191.09z"/>
		<path class="st1" d="M437.15,291.5h-26.87V161.26h26.87V291.5z"/>
		<path class="st1" d="M522.85,238.52c0,15.48-6.52,21.03-18.39,21.03h-25.57v31.95h-26.87V161.26h52.44
			c11.87,0,18.39,5.87,18.39,21.35V238.52z M495.98,229.88v-38.79h-17.09v38.79H495.98z"/>
		<path class="st1" d="M598.64,270.96c0,15-6.52,20.54-18.26,20.54h-43.96v-29.83h35.35V240.8h-17.22
			c-14.74,0-18.13-8.96-18.13-20.37v-37.81c0-15.48,6.39-21.35,18.26-21.35h41.35v29.83h-32.74v19.88h16.96
			c12.52,0,18.39,6.52,18.39,22.17V270.96z"/>
	</g>
	<g>
		<path d="M111.56,238.52c0,15.48-6.44,21.19-18.16,21.19H68.16v31.95H56.44V247h37.99c3.22,0,5.41-2.12,5.41-6.68v-59.66
			c0-4.56-2.19-6.52-5.41-6.52H53.23v117.52H41.51v-130.4H93.4c11.72,0,18.16,5.87,18.16,21.35V238.52z M96.62,238.2
			c0,3.75-0.77,4.56-3.35,4.56H56.44v-64.55h36.83c2.58,0,3.35,0.82,3.35,4.56V238.2z M84.9,229.72v-38.47H68.16v38.47H84.9z"/>
		<path d="M193.97,291.66h-11.72v-44.17c0-9.78-3.86-13.85-7.85-14.51v-0.33c4.89-1.3,7.85-5.22,7.85-15.32v-36.67
			c0-4.56-2.19-6.52-5.41-6.52h-39.4v117.52h-11.72v-130.4h50.09c11.72,0,18.16,5.87,18.16,21.35v33.41
			c0,9.94-3.61,14.67-9.53,16.79v0.33c5.67,0.81,9.53,5.38,9.53,15.32V291.66z M179.03,218.96c0,7.82-4.64,11.9-10.56,11.9h-27.81
			v-52.65h35.03c2.58,0,3.35,0.82,3.35,4.56V218.96z M179.03,291.66h-11.72v-43.85h-14.94v43.85h-11.72v-56.72h27.81
			c5.54,0,10.56,4.07,10.56,11.57V291.66z M167.32,217.98v-26.73h-14.94v26.73H167.32z"/>
		<path d="M279.47,270.96c0,14.51-5.92,20.7-17.64,20.7h-34.64c-11.07,0-17.77-5.87-17.77-20.7v-89c0-13.85,6.05-20.7,17.77-20.7
			h34.64c11.33,0,17.64,5.87,17.64,20.7V270.96z M267.75,181.96c0-5.87-1.93-7.82-5.92-7.82h-34.51c-3.99,0-6.18,1.96-6.18,7.82v89
			c0,6.19,2.32,7.82,6.18,7.82h34.51c4.12,0,5.92-2.44,5.92-7.33V181.96z M264.53,269.65c0,3.75-0.52,5.05-3.99,5.05h-32.06
			c-3.22,0-4.12-1.14-4.12-5.38v-85.9c0-4.24,0.64-5.22,4.12-5.22h32.06c3.48,0,3.99,0.98,3.99,5.22V269.65z M252.82,261.67v-70.41
			h-16.74v70.41H252.82z"/>
	</g>
	<g>
		<path d="M398.53,174.14h-71.62v-12.88h71.62V174.14z M361.1,291.66h-11.87v-100.4h-22.31v-13.04h34.18V291.66z M398.53,191.25
			h-22.31v100.4h-11.87V178.21h34.18V191.25z"/>
		<path d="M422.02,291.66h-11.87v-130.4h11.87V291.66z M437.15,291.66h-11.87v-130.4h11.87V291.66z"/>
		<path d="M522.85,238.52c0,15.48-6.52,21.19-18.39,21.19h-25.57v31.95h-11.87V247h38.48c3.26,0,5.48-2.12,5.48-6.68v-59.66
			c0-4.56-2.22-6.52-5.48-6.52h-41.74v117.52h-11.87v-130.4h52.57c11.87,0,18.39,5.87,18.39,21.35V238.52z M507.72,238.2
			c0,3.75-0.78,4.56-3.39,4.56h-37.31v-64.55h37.31c2.61,0,3.39,0.82,3.39,4.56V238.2z M495.85,229.72v-38.47h-16.96v38.47H495.85z"
			/>
		<path d="M596.03,174.14h-42.27c-3.26,0-5.61,1.96-5.61,6.52v40.58c0,3.26,0.91,6.68,6.13,6.68h25.05c3.26,0,4.17,0.98,4.17,4.4
			v37.81c0,3.59-0.52,4.56-3.78,4.56h-43.44v-13.04h35.35v-20.7h-17.09c-14.74,0-18.26-9.13-18.26-20.54v-37.81
			c0-15.48,6.52-21.35,18.39-21.35h41.35V174.14z M598.64,270.96c0,15.16-6.52,20.7-18.26,20.7h-44.09v-12.88h43.44
			c5.61,0,7.04-2.12,7.04-7.99v-39.44c0-5.05-0.91-7.5-7.04-7.5h-25.31c-2.48,0-3-1.3-3-3.59v-37.49c0-3.75,0.91-4.56,3.52-4.56
			h41.09v13.04h-32.74v19.72h16.96c12.52,0,18.39,6.52,18.39,22.17V270.96z"/>
	</g>
</g>
<g id="Layer_1" class="st2">
	
		<image style="display:inline;overflow:visible;" width="648" height="344" xlink:href="cpt-header-logo.png"  transform="matrix(1 0 0 1 5.2682 1.8107)">
	</image>
</g>
</svg>
