<?xml version="1.0" encoding="utf-8"?>
<!-- Generator: Adobe Illustrator 23.0.1, SVG Export Plug-In . SVG Version: 6.00 Build 0)  -->
<svg version="1.1" id="Layer_1" xmlns="http://www.w3.org/2000/svg" xmlns:xlink="http://www.w3.org/1999/xlink" x="0px" y="0px"
	 viewBox="0 0 510.63 513.12" style="enable-background:new 0 0 510.63 513.12;" xml:space="preserve">
<style type="text/css">
	.st0{fill:#FFFFFF;}
	.st1{fill:#FFC10E;}
	.st2{display:none;}
</style>
<g>
	<rect x="6.85" y="7.99" class="st0" width="498.7" height="500"/>
	<g>
		<rect x="6.2" y="7.99" class="st1" width="500" height="47.25"/>
		<rect x="6.2" y="465.13" class="st1" width="500" height="42.86"/>
		<rect x="6.2" y="73.92" class="st1" width="500" height="372.53"/>
	</g>
	<g>
		<path class="st0" d="M174.06,366.09H92c-22.43,0-33.76-8.58-33.76-31.8V196.5c0-23.22,11.33-32.05,33.76-32.05h82.06v46.19
			L109,210.89v109.02h65.06V366.09z"/>
		<path class="st0" d="M325.61,284.07c0,23.97-12.32,32.56-34.74,32.56h-48.3v49.46h-50.76V164.44h99.06
			c22.43,0,34.74,9.09,34.74,33.06V284.07z M274.84,270.69v-60.06h-32.28v60.06H274.84z"/>
		<path class="st0" d="M474.94,210.63H432.8v155.46h-50.77V210.63h-42.14v-46.19h135.04v46.19H474.94z"/>
	</g>
	<g>
		<path d="M174.06,366.34H92c-22.43,0-34.01-8.58-34.01-32.05V196.5c0-23.47,11.58-32.05,34.01-32.05h82.06v19.94H92.25
			c-7.39,0-11.83,4.04-11.83,12.12V334.3c0,8.08,4.44,12.12,11.83,12.12h81.81V366.34z M174.06,340.09h-79.6
			c-6.65,0-7.89-1.77-7.89-8.33v-133c0-6.56,1.23-8.08,7.89-8.08h79.6v20.19H109v109.04h65.06V340.09z"/>
		<path d="M325.61,284.07c0,23.97-12.32,32.81-34.74,32.81h-48.3v49.46h-22.42v-69.15h72.7c6.16,0,10.35-3.28,10.35-10.35v-92.36
			c0-7.07-4.19-10.1-10.35-10.1h-78.86v181.96h-22.42v-201.9h99.31c22.43,0,34.74,9.09,34.74,33.06v86.57H325.61z M297.02,283.56
			c0,5.81-1.48,7.07-6.41,7.07h-70.48v-99.94h70.48c4.93,0,6.41,1.26,6.41,7.07V283.56z M274.6,270.44v-59.56h-32.03v59.56H274.6z"
			/>
		<path d="M474.94,184.38H339.65v-19.94h135.29V184.38z M404.21,366.34h-22.42V210.88h-42.14v-20.19h64.56V366.34z M474.94,210.88
			H432.8v155.46h-22.43V190.69h64.56v20.19H474.94z"/>
	</g>
</g>
<g class="st2">
	
		<image style="display:inline;overflow:visible;enable-background:new    ;" width="99" height="99" xlink:href="cpt-footer-logo.png"  transform="matrix(1 0 0 1 342.1686 187.0142)">
	</image>
</g>
</svg>
