<?xml version="1.0" encoding="utf-8"?>
<!-- Generator: Adobe Illustrator 23.0.1, SVG Export Plug-In . SVG Version: 6.00 Build 0)  -->
<svg version="1.1" id="Layer_1" xmlns="http://www.w3.org/2000/svg" xmlns:xlink="http://www.w3.org/1999/xlink" x="0px" y="0px"
	 viewBox="0 0 1214.34 325.47" style="enable-background:new 0 0 1214.34 325.47;" xml:space="preserve">
<style type="text/css">
	.st0{fill:#FFC10E;}
	.st1{fill:none;stroke:#FFC10E;stroke-width:0.75;stroke-miterlimit:10;}
	.st2{fill:#FFFFFF;}
</style>
<g>
	
		<image style="display:none;overflow:visible;enable-background:new    ;" width="277" height="82" xlink:href="diyu-header-sticky.png"  transform="matrix(1 0 0 1 567.8829 98.2768)">
	</image>
</g>
<g>
	<g>
		<g>
			<g id="XMLID_1_">
				<g>
					<path class="st0" d="M1206.88,8.67c0,0,0,56.58,0,150.65c0,111.79-119.6,159.14-119.6,159.14s-119.6-47.4-119.6-159.14
						c0-94.12,0-150.65,0-150.65L1206.88,8.67L1206.88,8.67z M1197.52,159.05c0-86.58,0-140.7,0-140.7H977.05c0,0,0,54.11,0,140.7
						c0,102.79,110.24,146.4,110.24,146.4S1197.52,261.89,1197.52,159.05z"/>
					<path d="M1197.52,18.35c0,0,0,54.11,0,140.7c0,102.79-110.24,146.4-110.24,146.4s-110.24-43.61-110.24-146.4
						c0-86.58,0-140.7,0-140.7H1197.52z M1190.49,139.82c0-69.96,0-113.52,0-113.52h-99.92v113.52H1190.49z M1087.37,211.79
						l60.51-24.16l-60.6-24.11l-60.42,24.11l10.87,4.34l-5.39,60.78c0,0,0.32,2.69,5.25,0.82c4.89-1.87,7.26,0,7.26,0
						c-2.47-9.68-4.43-47.9-4.93-60.69L1087.37,211.79z M1129.16,222.66c0-11.64-7.76-20.09-7.76-20.09l-34.16,13.65l-33.66-13.65
						c-7.58,8.08-7.95,20.32-7.95,20.32c30.73-2.97,41.6,20.32,41.6,20.32C1101.99,218.09,1129.16,222.66,1129.16,222.66z
						 M1083.99,139.82V26.3h-99.92c0,0,0,43.56,0,113.52H1083.99z"/>
					<path class="st0" d="M1190.49,26.3c0,0,0,43.56,0,113.52h-99.92V26.3H1190.49z M1181.08,81.92l-39.14-35.44l-40.41,35.62
						c0,0,2.47,4.61,7.95,0l32.47-27.49l30.46,27.31C1178.7,86.49,1181.08,81.92,1181.08,81.92z M1167.29,115.48
						c2.24,0,2.1-2.19,2.1-2.19V83.01l-27.67-24.61l-29.36,24.61v30.82c0,0-0.05,1.78,1.69,1.78c2.15,0,20.05-0.05,20.05-0.05
						l0.05-16.44c0,0-0.27-2.69,2.37-2.69h8.31c3.11,0,2.92,2.69,2.92,2.69l-0.05,16.39h19.59V115.48z M1169.3,67.9V51.78
						l-7.81-0.59l0.05,9.5L1169.3,67.9z"/>
					<path d="M1141.94,46.48l39.14,35.44c0,0-2.37,4.52-8.63,0l-30.46-27.31l-32.47,27.49c-5.43,4.61-7.95,0-7.95,0L1141.94,46.48z"
						/>
					<path d="M1169.39,113.29c0,0,0.09,2.19-2.1,2.19h-19.64l0.05-16.39c0,0,0.18-2.69-2.92-2.69h-8.31c-2.65,0-2.37,2.69-2.37,2.69
						l-0.05,16.44c0,0-17.9,0.05-20.05,0.05c-1.74,0-1.69-1.78-1.69-1.78V82.98l29.36-24.61l27.67,24.61v30.32L1169.39,113.29
						L1169.39,113.29z"/>
					<polygon points="1169.3,51.78 1169.3,67.9 1161.49,60.69 1161.49,51.19 					"/>
					<path class="st0" d="M1147.88,187.68l-60.51,24.16l-47.45-18.91c0.5,12.83,2.47,51.01,4.93,60.69c0,0-2.37-1.87-7.26,0
						s-5.25-0.82-5.25-0.82l5.39-60.78l-10.87-4.34l60.42-24.11L1147.88,187.68z M1093.54,185.49c0-1.19-2.6-2.15-5.85-2.15
						c-3.24,0-5.85,0.96-5.85,2.15s2.6,2.15,5.85,2.15C1090.94,187.64,1093.54,186.68,1093.54,185.49z"/>
					<path class="st0" d="M1121.39,202.57c0,0,7.76,8.45,7.76,20.09c0,0-27.17-4.57-41.92,20.6c0,0-10.87-23.29-41.6-20.32
						c0,0,0.32-12.24,7.95-20.32l33.66,13.65L1121.39,202.57z"/>
					<path d="M1087.69,183.39c3.24,0,5.85,0.96,5.85,2.15s-2.6,2.15-5.85,2.15c-3.24,0-5.85-0.96-5.85-2.15
						S1084.45,183.39,1087.69,183.39z"/>
					<path d="M1073.26,108.91c0,0,0.59,2.51-1.46,4.7c0,0-2.1,2.47-5.02,1.78c0,0-3.88-5.71-7.58-9.32
						c-3.7-3.61-10.91-9.96-12.42-11.69c-1.51-1.74-8.36-9.77-8.81-10.82c0,0-0.55-0.87-0.18-1.23l3.42-3.42
						c0,0,0.55-0.46,1.32,0.09s7.63,6.03,10.37,9.27s9.64,11.37,11.32,13.06C1066,103.02,1070.34,106.99,1073.26,108.91z"/>
					<polygon points="1065.73,49.5 1061.98,54.98 1056.55,58.77 1038.56,76.76 1037.19,75.39 1055.18,57.4 1058.79,51.78 
						1064.18,47.94 					"/>
					<rect x="1035.4" y="78.09" transform="matrix(0.7071 -0.7071 0.7071 0.7071 248.1836 756.7131)" width="4.25" height="1.37"/>
					<rect x="1034.27" y="76.77" transform="matrix(0.7066 -0.7076 0.7076 0.7066 249.0546 756.1721)" width="4.25" height="1.96"/>
					<rect x="1027.07" y="61.26" transform="matrix(0.7072 -0.707 0.707 0.7072 251.6213 748.2379)" width="4.25" height="18.13"/>
					<rect x="1033.72" y="78.6" transform="matrix(0.7071 -0.7071 0.7071 0.7071 246.6944 754.7231)" width="1.32" height="1.96"/>
					<path d="M1033.99,82.15c0.32,0.32,0.32,0.78,0,1.1l-1.37,1.37l-3.29-3.29l1.37-1.37c0.32-0.32,0.78-0.32,1.1,0L1033.99,82.15z"
						/>
					<path class="st0" d="M997.09,59.73c-0.37,0.18-2.28,2.42-2.65,2.74c-0.32,0.32,0,1.19,0,1.19c2.92,3.47,6.3,5.98,6.85,6.16
						c0.55,0.23,2.19-1.55,2.92-2.47c0.73-0.91,0.59-2.15,0.59-2.15c0.27-3.01,2.37-4.2,2.37-4.2c3.52-1.64,6.9,0,7.44,0.32
						c0.55,0.32,1.14-0.05,1.14-0.05s3.65-3.65,4.11-4.11s0.05-1.14,0.05-1.14c-1.28-1.46-2.01-5.3-2.01-5.3
						c3.74-2.28,11.05-1.32,12.83-1.19c1.78,0.14,3.29-1.19,3.29-1.19l-0.78-0.55c2.51-0.46,1.87-1.32,1.87-1.32
						c-14.93-4.43-19.91-2.1-22.83-1.05c-2.92,1.05-7.54,5.94-7.54,5.94c-0.82,0.82-1.32,2.1-1.32,2.1
						c-0.73,3.11-1.46,4.11-2.42,5.02C1000.06,59.41,997.5,59.59,997.09,59.73z M1083.99,26.3v113.52h-99.92
						c0-69.96,0-113.52,0-113.52H1083.99z M1071.8,113.61c2.05-2.19,1.46-4.7,1.46-4.7c-2.92-1.92-7.31-5.89-9-7.58
						c-1.74-1.74-8.63-9.82-11.32-13.06c-2.74-3.24-9.64-8.72-10.37-9.27c-0.78-0.55-1.32-0.09-1.32-0.09l-3.42,3.42
						c-0.37,0.37,0.18,1.23,0.18,1.23c0.46,1.05,7.31,9.13,8.81,10.82c1.51,1.74,8.72,8.13,12.42,11.69
						c3.7,3.61,7.58,9.32,7.58,9.32C1069.7,116.08,1071.8,113.61,1071.8,113.61z M1061.98,54.98l3.74-5.48l-1.55-1.55l-5.43,3.84
						l-3.61,5.62l-17.99,17.99l-12.83-12.83l-3.01,3.01l12.83,12.83l-0.91,0.91l1.37,1.37l0.91-0.91l0.96,0.96l3.01-3.01l-0.96-0.96
						l17.99-17.99L1061.98,54.98z M1033.99,83.24c0.32-0.32,0.32-0.78,0-1.1l-2.19-2.19c-0.32-0.32-0.78-0.32-1.1,0l-1.37,1.37
						l3.29,3.29L1033.99,83.24z M1032.16,89.64c1.6-0.59,0.5-2.15,0.5-2.15l-5.98-5.98c-1.42-1.19-2.24,0.59-2.24,0.59
						s-1.32,4.52-5.39,7.58c-4.06,3.06-13.24,10.87-13.24,10.87s-8.59,7.03-8.81,11.01c-0.27,4.25,2.92,6.39,6.44,6.16
						c2.56-0.14,7.81-5.66,10.78-8.86s8.45-10.87,10.46-13.56C1026.68,92.61,1030.52,90.23,1032.16,89.64z M1022.89,61.46
						c0.5-0.55,0.27-0.87,0.27-0.87l-1.87-2.06l-4.16,4.16c0,0,1.64,1.55,2.01,1.83s0.82-0.18,0.82-0.18
						S1022.48,61.92,1022.89,61.46z"/>
					<path d="M1032.67,87.49c0,0,1.1,1.55-0.5,2.15c-1.6,0.59-5.48,2.92-7.49,5.62c-2.01,2.69-7.49,10.37-10.46,13.56
						c-2.97,3.2-8.22,8.68-10.78,8.86c-3.52,0.23-6.67-1.92-6.44-6.16c0.23-3.97,8.81-11.01,8.81-11.01s9.18-7.81,13.24-10.87
						c4.06-3.06,5.39-7.58,5.39-7.58s0.78-1.74,2.24-0.59L1032.67,87.49z"/>
					<path d="M1023.17,60.59c0,0,0.23,0.32-0.27,0.87c-0.41,0.46-2.92,2.92-2.92,2.92s-0.46,0.46-0.82,0.18
						c-0.37-0.27-2.01-1.83-2.01-1.83l4.16-4.16L1023.17,60.59z"/>
					<path d="M1004.81,65.3c0,0,0.09,1.19-0.59,2.15c-0.73,0.91-2.37,2.69-2.92,2.47c-0.55-0.23-3.93-2.74-6.85-6.16
						c0,0-0.32-0.87,0-1.19s2.24-2.56,2.65-2.74c0.37-0.18,2.97-0.32,3.88-1.28c0.91-0.91,1.69-1.92,2.42-5.02
						c0,0,0.5-1.28,1.32-2.1c0,0,4.66-4.89,7.54-5.94c2.92-1.05,7.9-3.38,22.83,1.05c0,0,0.64,0.87-1.87,1.32l0.78,0.55
						c0,0-1.55,1.32-3.29,1.19c-1.74-0.14-9.09-1.1-12.83,1.19c0,0,0.78,3.84,2.01,5.3c0,0,0.37,0.73-0.05,1.14
						c-0.46,0.46-4.11,4.11-4.11,4.11s-0.59,0.37-1.14,0.05s-3.93-1.96-7.44-0.32C1007.18,61.05,1005.08,62.28,1004.81,65.3z"/>
				</g>
				<g>
					<path class="st1" d="M967.64,8.67c0,0,0,56.58,0,150.65c0,111.79,119.6,159.14,119.6,159.14s119.6-47.4,119.6-159.14
						c0-94.12,0-150.65,0-150.65L967.64,8.67L967.64,8.67z"/>
				</g>
			</g>
		</g>
	</g>
	<g>
		<path class="st0" d="M6.88,138.5V63.33h25.89c5.85,0,10.32,0.37,13.38,1.1c4.29,1,7.99,2.79,11.01,5.39
			c3.97,3.33,6.94,7.63,8.9,12.83c1.96,5.21,2.97,11.19,2.97,17.86c0,5.71-0.69,10.78-2.01,15.16c-1.32,4.43-3.06,8.08-5.11,10.96
			s-4.38,5.16-6.85,6.8s-5.48,2.92-8.95,3.79c-3.52,0.87-7.53,1.28-12.1,1.28H6.88z M16.84,129.59h16.07
			c4.98,0,8.86-0.46,11.69-1.37c2.83-0.91,5.07-2.24,6.76-3.88c2.37-2.37,4.2-5.53,5.53-9.5c1.32-3.97,1.96-8.81,1.96-14.48
			c0-7.85-1.28-13.88-3.88-18.13c-2.6-4.2-5.71-7.03-9.41-8.49c-2.65-1-6.94-1.55-12.88-1.55h-15.8v57.4H16.84z"/>
		<path class="st0" d="M86.11,138.5V63.33h9.96v75.17H86.11z"/>
		<path class="st0" d="M136.43,138.5v-31.83l-29-43.34h12.1l14.84,22.65c2.74,4.25,5.3,8.49,7.63,12.74
			c2.24-3.93,4.98-8.36,8.22-13.29l14.57-22.1h11.6l-30,43.34v31.83H136.43z"/>
		<path class="st0" d="M265.3,63.29h9.96v43.43c0,7.53-0.87,13.56-2.56,17.99s-4.79,8.04-9.27,10.87c-4.48,2.79-10.32,4.2-17.58,4.2
			c-7.03,0-12.79-1.23-17.26-3.65c-4.48-2.42-7.67-5.94-9.59-10.55c-1.92-4.61-2.88-10.87-2.88-18.86V63.29h9.96v43.38
			c0,6.53,0.59,11.32,1.83,14.43s3.29,5.48,6.26,7.17s6.58,2.51,10.87,2.51c7.31,0,12.51-1.64,15.66-4.98
			c3.11-3.33,4.66-9.68,4.66-19.13V63.29H265.3z"/>
		<path class="st0" d="M293.39,138.5V63.33h10.18l39.5,59.05V63.33h9.54v75.17h-10.18l-39.5-59.09v59.09H293.39z"/>
		<path class="st0" d="M372.71,138.5V63.33h9.96v75.17H372.71z"/>
		<path class="st0" d="M423.4,138.5l-29.13-75.17h10.78l19.54,54.62c1.55,4.38,2.88,8.49,3.93,12.33c1.14-4.11,2.51-8.22,4.06-12.33
			l20.32-54.62h10.14l-29.45,75.17H423.4z"/>
		<path class="st0" d="M473.81,138.5V63.33h54.34v8.86h-44.43v23.02h41.6v8.81h-41.6v25.57h46.17v8.86h-56.08V138.5z"/>
		<path class="st0" d="M545.51,138.5V63.33h33.34c6.71,0,11.78,0.69,15.3,2.01c3.52,1.32,6.26,3.74,8.36,7.17
			c2.1,3.42,3.15,7.22,3.15,11.32c0,5.34-1.74,9.82-5.16,13.47c-3.47,3.65-8.77,5.98-15.98,6.99c2.65,1.28,4.61,2.51,5.98,3.74
			c2.92,2.65,5.66,5.98,8.27,10l13.06,20.46h-12.51l-9.96-15.66c-2.92-4.52-5.3-7.95-7.17-10.37c-1.87-2.37-3.56-4.06-5.07-5.02
			s-3.01-1.64-4.52-2.01c-1.14-0.23-2.97-0.37-5.53-0.37h-11.55v33.38h-10v0.06H545.51z M555.46,96.49h21.37
			c4.57,0,8.08-0.46,10.69-1.42s4.52-2.47,5.85-4.52c1.32-2.06,2.01-4.34,2.01-6.76c0-3.56-1.28-6.48-3.88-8.77
			c-2.6-2.28-6.67-3.42-12.24-3.42h-23.79L555.46,96.49L555.46,96.49z"/>
		<path class="st0" d="M619.48,114.34l9.36-0.82c0.46,3.74,1.46,6.85,3.11,9.27c1.64,2.42,4.16,4.38,7.58,5.85
			c3.42,1.51,7.26,2.24,11.55,2.24c3.79,0,7.12-0.55,10.05-1.69c2.92-1.14,5.07-2.69,6.48-4.66c1.42-1.96,2.15-4.11,2.15-6.44
			c0-2.37-0.69-4.43-2.05-6.16c-1.37-1.74-3.61-3.24-6.76-4.43c-2.01-0.78-6.48-2.01-13.38-3.65c-6.9-1.64-11.74-3.24-14.52-4.7
			c-3.61-1.87-6.26-4.2-8.04-6.99c-1.78-2.79-2.65-5.89-2.65-9.36c0-3.79,1.1-7.35,3.24-10.64c2.15-3.29,5.3-5.8,9.45-7.53
			c4.16-1.69,8.72-2.56,13.79-2.56c5.57,0,10.5,0.91,14.75,2.69s7.53,4.43,9.82,7.95c2.28,3.47,3.52,7.44,3.7,11.83l-9.54,0.73
			c-0.5-4.75-2.24-8.36-5.21-10.78c-2.97-2.42-7.31-3.65-13.11-3.65c-6.03,0-10.41,1.1-13.15,3.29c-2.74,2.19-4.11,4.84-4.11,7.99
			c0,2.69,0.96,4.93,2.92,6.67c1.92,1.74,6.9,3.52,15.02,5.34c8.13,1.83,13.65,3.42,16.62,4.79c4.38,2.01,7.63,4.57,9.68,7.67
			s3.11,6.67,3.11,10.69c0,4.02-1.14,7.76-3.42,11.32c-2.28,3.52-5.57,6.3-9.86,8.27c-4.29,1.96-9.13,2.97-14.48,2.97
			c-6.8,0-12.51-1-17.12-2.97c-4.61-1.96-8.22-4.98-10.82-8.95C620.99,123.89,619.62,119.37,619.48,114.34z"/>
		<path class="st0" d="M696.29,138.5V63.33h9.96v75.17H696.29z"/>
		<path class="st0" d="M744.61,138.5V72.19h-24.75v-8.86h59.59v8.86h-24.89v66.31H744.61z"/>
		<path class="st0" d="M812.51,138.5v-31.83l-28.95-43.34h12.1l14.84,22.65c2.74,4.25,5.3,8.49,7.63,12.74
			c2.24-3.93,4.98-8.36,8.22-13.29l14.57-22.1h11.6l-30,43.34v31.83H812.51z"/>
	</g>
	<g>
		<path class="st2" d="M276.72,213.99c0-10.32,2.79-18.36,8.31-24.2c5.53-5.85,12.7-8.77,21.42-8.77c5.75,0,10.91,1.37,15.53,4.11
			c4.61,2.74,8.13,6.58,10.55,11.46c2.42,4.89,3.61,10.46,3.61,16.67c0,6.3-1.28,11.92-3.79,16.9c-2.51,4.98-6.16,8.72-10.82,11.28
			c-4.66,2.56-9.68,3.84-15.07,3.84c-5.85,0-11.05-1.42-15.66-4.25s-8.08-6.67-10.46-11.55
			C277.95,224.58,276.72,219.42,276.72,213.99z M285.17,214.12c0,7.49,2.01,13.38,6.03,17.67s9.09,6.44,15.16,6.44
			c6.16,0,11.28-2.19,15.25-6.53c4.02-4.34,5.98-10.5,5.98-18.49c0-5.07-0.87-9.45-2.56-13.24s-4.2-6.71-7.49-8.77
			c-3.29-2.1-6.99-3.11-11.1-3.11c-5.8,0-10.82,2.01-15.02,5.98C287.27,198.09,285.17,204.76,285.17,214.12z"/>
		<path class="st2" d="M343.48,244.22v-44.98h6.85v6.39c3.29-4.93,8.08-7.4,14.34-7.4c2.69,0,5.21,0.5,7.49,1.46
			c2.28,0.96,3.97,2.24,5.11,3.84c1.14,1.6,1.92,3.47,2.37,5.62c0.27,1.42,0.41,3.88,0.41,7.4v27.67h-7.63v-27.35
			c0-3.11-0.27-5.43-0.87-6.99s-1.64-2.79-3.15-3.7c-1.51-0.91-3.29-1.37-5.3-1.37c-3.24,0-6.07,1.05-8.4,3.11
			c-2.37,2.06-3.52,5.98-3.52,11.74v24.57L343.48,244.22L343.48,244.22z"/>
		<path class="st2" d="M389.28,244.22v-62.11h7.63v62.11H389.28z"/>
		<path class="st2" d="M406.55,190.88v-8.77h7.63v8.77H406.55z M406.55,244.22v-44.98h7.63v44.98H406.55z"/>
		<path class="st2" d="M423.49,244.22v-44.98h6.85v6.39c3.29-4.93,8.08-7.4,14.34-7.4c2.69,0,5.21,0.5,7.49,1.46
			c2.28,0.96,3.97,2.24,5.11,3.84c1.14,1.6,1.92,3.47,2.37,5.62c0.27,1.42,0.41,3.88,0.41,7.4v27.67h-7.63v-27.35
			c0-3.11-0.27-5.43-0.87-6.99s-1.64-2.79-3.15-3.7c-1.51-0.91-3.29-1.37-5.3-1.37c-3.24,0-6.07,1.05-8.4,3.11
			c-2.37,2.06-3.52,5.98-3.52,11.74v24.57L423.49,244.22L423.49,244.22z"/>
		<path class="st2" d="M500.3,229.74l7.9,0.96c-1.23,4.61-3.56,8.17-6.9,10.73c-3.38,2.56-7.67,3.79-12.88,3.79
			c-6.58,0-11.78-2.01-15.66-6.07c-3.84-4.06-5.8-9.73-5.8-17.03c0-7.58,1.96-13.43,5.85-17.63c3.88-4.2,8.95-6.26,15.16-6.26
			c6.03,0,10.91,2.05,14.75,6.12c3.79,4.11,5.71,9.86,5.71,17.31c0,0.46,0,1.14-0.05,2.05h-33.56c0.27,4.93,1.69,8.72,4.2,11.37
			s5.66,3.93,9.41,3.93c2.79,0,5.16-0.73,7.17-2.19C497.56,235.31,499.16,232.94,500.3,229.74z M475.27,217.41h25.12
			c-0.32-3.79-1.28-6.62-2.88-8.49c-2.42-2.92-5.57-4.38-9.45-4.38c-3.52,0-6.44,1.19-8.81,3.52
			C476.82,210.33,475.5,213.48,475.27,217.41z"/>
		<path class="st2" d="M582.63,222.43l8.22,2.05c-1.74,6.76-4.84,11.92-9.32,15.43c-4.48,3.56-9.96,5.34-16.44,5.34
			c-6.71,0-12.15-1.37-16.35-4.11c-4.2-2.74-7.4-6.67-9.59-11.83c-2.19-5.16-3.29-10.73-3.29-16.67c0-6.48,1.23-12.1,3.7-16.94
			c2.47-4.79,5.98-8.49,10.55-10.96c4.57-2.51,9.59-3.74,15.07-3.74c6.21,0,11.42,1.6,15.66,4.75c4.25,3.15,7.17,7.63,8.86,13.33
			l-8.08,1.92c-1.46-4.52-3.52-7.81-6.26-9.86c-2.74-2.06-6.16-3.11-10.32-3.11c-4.79,0-8.77,1.14-11.96,3.42
			c-3.2,2.28-5.48,5.34-6.76,9.22c-1.28,3.84-1.96,7.81-1.96,11.92c0,5.3,0.78,9.91,2.33,13.84c1.55,3.93,3.93,6.9,7.17,8.81
			c3.24,1.96,6.76,2.92,10.55,2.92c4.61,0,8.49-1.32,11.69-3.97C579.34,231.61,581.49,227.68,582.63,222.43z"/>
		<path class="st2" d="M594.92,221.75c0-8.36,2.33-14.52,6.94-18.49c3.88-3.33,8.59-4.98,14.16-4.98c6.16,0,11.23,2.01,15.16,6.07
			s5.89,9.64,5.89,16.8c0,5.8-0.87,10.37-2.6,13.65c-1.74,3.33-4.25,5.89-7.58,7.72c-3.33,1.83-6.94,2.74-10.87,2.74
			c-6.3,0-11.37-2.01-15.25-6.07C596.88,235.13,594.92,229.33,594.92,221.75z M602.77,221.75c0,5.75,1.23,10.09,3.79,12.92
			s5.66,4.29,9.5,4.29c3.79,0,6.94-1.46,9.45-4.34s3.79-7.26,3.79-13.2c0-5.57-1.28-9.77-3.79-12.65s-5.66-4.29-9.41-4.29
			c-3.79,0-6.99,1.42-9.5,4.29C604.09,211.66,602.77,215.95,602.77,221.75z"/>
		<path class="st2" d="M673.23,244.22v-6.62c-3.52,5.07-8.27,7.63-14.29,7.63c-2.65,0-5.11-0.5-7.44-1.51
			c-2.33-1-4.02-2.28-5.11-3.84c-1.1-1.55-1.92-3.42-2.33-5.66c-0.32-1.51-0.46-3.88-0.46-7.12v-27.86h7.63v24.93
			c0,3.97,0.14,6.67,0.46,8.04c0.5,2.01,1.51,3.56,3.06,4.7s3.47,1.74,5.75,1.74s4.43-0.59,6.44-1.78s3.42-2.79,4.25-4.79
			c0.82-2.01,1.23-4.93,1.23-8.81v-24.11h7.63v44.98h-6.8v0.08H673.23z"/>
		<path class="st2" d="M689.67,244.22v-44.98h6.85v6.8c1.74-3.2,3.38-5.3,4.84-6.3s3.11-1.51,4.89-1.51c2.56,0,5.16,0.82,7.81,2.47
			l-2.6,7.08c-1.87-1.1-3.74-1.64-5.57-1.64c-1.69,0-3.15,0.5-4.48,1.51c-1.32,1-2.28,2.37-2.83,4.16c-0.87,2.69-1.28,5.66-1.28,8.9
			v23.56h-7.63V244.22z"/>
		<path class="st2" d="M713.33,230.79l7.53-1.19c0.41,3.01,1.6,5.34,3.52,6.94c1.92,1.6,4.66,2.42,8.13,2.42
			c3.52,0,6.12-0.73,7.81-2.15c1.69-1.42,2.56-3.11,2.56-5.02c0-1.74-0.73-3.06-2.24-4.06c-1.05-0.69-3.65-1.55-7.81-2.6
			c-5.57-1.42-9.45-2.65-11.64-3.65c-2.15-1.05-3.79-2.47-4.93-4.29c-1.14-1.83-1.69-3.84-1.69-6.03c0-2.01,0.46-3.88,1.37-5.57
			s2.15-3.15,3.74-4.25c1.19-0.87,2.79-1.6,4.84-2.24c2.05-0.59,4.25-0.91,6.58-0.91c3.52,0,6.62,0.5,9.32,1.51
			c2.65,1,4.66,2.37,5.89,4.11c1.28,1.74,2.15,4.06,2.65,6.99l-7.44,1c-0.32-2.33-1.32-4.11-2.97-5.43
			c-1.64-1.32-3.93-1.96-6.9-1.96c-3.52,0-5.98,0.59-7.49,1.74c-1.51,1.14-2.24,2.51-2.24,4.06c0,1,0.32,1.87,0.96,2.65
			c0.64,0.82,1.6,1.51,2.92,2.05c0.78,0.27,3.01,0.91,6.76,1.96c5.39,1.46,9.13,2.6,11.28,3.52c2.15,0.91,3.79,2.24,5.02,4.02
			c1.23,1.78,1.83,3.93,1.83,6.53c0,2.56-0.73,4.93-2.24,7.17s-3.61,3.97-6.44,5.21c-2.79,1.23-5.98,1.83-9.5,1.83
			c-5.85,0-10.32-1.23-13.38-3.65C716.07,239.06,714.19,235.58,713.33,230.79z"/>
		<path class="st2" d="M788.31,229.74l7.9,0.96c-1.23,4.61-3.56,8.17-6.9,10.73c-3.38,2.56-7.67,3.79-12.88,3.79
			c-6.58,0-11.78-2.01-15.66-6.07c-3.84-4.06-5.8-9.73-5.8-17.03c0-7.58,1.96-13.43,5.85-17.63c3.88-4.2,8.95-6.26,15.16-6.26
			c6.03,0,10.91,2.05,14.75,6.12c3.84,4.11,5.71,9.86,5.71,17.31c0,0.46,0,1.14-0.05,2.05h-33.56c0.27,4.93,1.69,8.72,4.2,11.37
			s5.66,3.93,9.41,3.93c2.79,0,5.16-0.73,7.17-2.19C785.62,235.31,787.17,232.94,788.31,229.74z M763.28,217.41h25.12
			c-0.32-3.79-1.28-6.62-2.88-8.49c-2.42-2.92-5.57-4.38-9.45-4.38c-3.52,0-6.44,1.19-8.81,3.52
			C764.84,210.33,763.51,213.48,763.28,217.41z"/>
		<path class="st2" d="M800.46,230.79l7.53-1.19c0.41,3.01,1.6,5.34,3.52,6.94s4.66,2.42,8.13,2.42c3.52,0,6.12-0.73,7.81-2.15
			c1.69-1.42,2.56-3.11,2.56-5.02c0-1.74-0.73-3.06-2.24-4.06c-1.05-0.69-3.65-1.55-7.81-2.6c-5.57-1.42-9.45-2.65-11.64-3.65
			c-2.15-1.05-3.79-2.47-4.93-4.29c-1.14-1.83-1.69-3.84-1.69-6.03c0-2.01,0.46-3.88,1.37-5.57s2.15-3.15,3.74-4.25
			c1.19-0.87,2.79-1.6,4.84-2.24c2.06-0.59,4.25-0.91,6.58-0.91c3.52,0,6.62,0.5,9.32,1.51c2.65,1,4.66,2.37,5.89,4.11
			c1.28,1.74,2.15,4.06,2.65,6.99l-7.44,1c-0.32-2.33-1.32-4.11-2.97-5.43c-1.64-1.32-3.93-1.96-6.9-1.96
			c-3.52,0-5.98,0.59-7.49,1.74c-1.51,1.14-2.24,2.51-2.24,4.06c0,1,0.32,1.87,0.96,2.65c0.64,0.82,1.6,1.51,2.92,2.05
			c0.78,0.27,3.01,0.91,6.76,1.96c5.39,1.46,9.13,2.6,11.28,3.52c2.15,0.91,3.79,2.24,5.02,4.02s1.83,3.93,1.83,6.53
			c0,2.56-0.73,4.93-2.24,7.17s-3.61,3.97-6.44,5.21c-2.79,1.23-5.98,1.83-9.5,1.83c-5.85,0-10.32-1.23-13.38-3.65
			C803.2,239.06,801.32,235.58,800.46,230.79z"/>
	</g>
</g>
</svg>
