<?xml version="1.0" encoding="utf-8"?>
<!-- Generator: Adobe Illustrator 23.0.1, SVG Export Plug-In . SVG Version: 6.00 Build 0)  -->
<svg version="1.1" id="Layer_1" xmlns="http://www.w3.org/2000/svg" xmlns:xlink="http://www.w3.org/1999/xlink" x="0px" y="0px"
	 viewBox="0 0 32 32" style="enable-background:new 0 0 32 32;" xml:space="preserve">
<style type="text/css">
	.st0{fill:#808080;}
</style>
<g id="XMLID_834_">
	<path id="XMLID_835_" class="st0" d="M9.38,16.913h3.069v12.636c0,0.249,0.202,0.452,0.452,0.452h5.204
		c0.249,0,0.452-0.202,0.452-0.452V16.972h3.528c0.229,0,0.422-0.172,0.449-0.4l0.536-4.652c0.015-0.128-0.026-0.256-0.111-0.352
		c-0.086-0.096-0.208-0.151-0.337-0.151h-4.064V8.501c0-0.879,0.473-1.325,1.407-1.325c0.133,0,2.657,0,2.657,0
		c0.249,0,0.452-0.202,0.452-0.452v-4.27c0-0.249-0.202-0.452-0.452-0.452h-3.662C18.933,2.002,18.876,2,18.791,2
		c-0.635,0-2.844,0.125-4.589,1.73c-1.933,1.779-1.664,3.908-1.6,4.277v3.41H9.38c-0.249,0-0.452,0.202-0.452,0.452v4.592
		C8.928,16.711,9.131,16.913,9.38,16.913z"/>
</g>
</svg>
