<?xml version="1.0" encoding="utf-8"?>
<!-- Generator: Adobe Illustrator 23.0.1, SVG Export Plug-In . SVG Version: 6.00 Build 0)  -->
<svg version="1.1" id="Layer_1" xmlns="http://www.w3.org/2000/svg" xmlns:xlink="http://www.w3.org/1999/xlink" x="0px" y="0px"
	 viewBox="0 0 32 32" style="enable-background:new 0 0 32 32;" xml:space="preserve">
<style type="text/css">
	.st0{fill:#808080;}
</style>
<g>
	<path class="st0" d="M22.164,1.999H9.618c-4.261,0-7.727,3.466-7.727,7.727v12.546c0,4.261,3.466,7.727,7.727,7.727h12.546
		c4.261,0,7.727-3.466,7.727-7.727V9.726C29.891,5.466,26.425,1.999,22.164,1.999z M27.407,22.273c0,2.891-2.352,5.243-5.243,5.243
		H9.618c-2.891,0-5.243-2.352-5.243-5.243V9.726c0-2.891,2.352-5.243,5.243-5.243h12.546c2.891,0,5.243,2.352,5.243,5.243
		L27.407,22.273L27.407,22.273z"/>
	<path class="st0" d="M15.891,8.785c-3.978,0-7.215,3.237-7.215,7.215c0,3.978,3.237,7.215,7.215,7.215s7.215-3.236,7.215-7.215
		C23.106,12.021,19.869,8.785,15.891,8.785z M15.891,20.73c-2.608,0-4.731-2.122-4.731-4.73c0-2.609,2.122-4.731,4.731-4.731
		s4.731,2.122,4.731,4.731C20.621,18.608,18.499,20.73,15.891,20.73z"/>
	<path class="st0" d="M23.408,6.678c-0.479,0-0.949,0.194-1.287,0.533C21.782,7.55,21.587,8.02,21.587,8.5
		c0,0.479,0.195,0.949,0.535,1.289c0.338,0.338,0.808,0.533,1.287,0.533c0.48,0,0.949-0.195,1.289-0.533
		c0.34-0.34,0.533-0.81,0.533-1.289c0-0.48-0.194-0.951-0.533-1.289C24.359,6.872,23.889,6.678,23.408,6.678z"/>
</g>
</svg>
