<?xml version="1.0" encoding="utf-8"?>
<!-- Generator: Adobe Illustrator 23.0.1, SVG Export Plug-In . SVG Version: 6.00 Build 0)  -->
<svg version="1.1" id="Capa_1" xmlns="http://www.w3.org/2000/svg" xmlns:xlink="http://www.w3.org/1999/xlink" x="0px" y="0px"
	 viewBox="0 0 30 30" style="enable-background:new 0 0 30 30;" xml:space="preserve">
<style type="text/css">
	.st0{fill:#808080;}
</style>
<g>
	<g>
		<path class="st0" d="M21.793,2.735c-2.145-1.252-4.487-1.878-7.027-1.878c-2.54,0-4.883,0.626-7.027,1.878
			C5.593,3.987,3.895,5.685,2.643,7.83c-1.252,2.145-1.878,4.488-1.878,7.027c0,2.832,0.771,5.402,2.315,7.711
			c1.543,2.309,3.567,4.017,6.07,5.122c-0.049-1.3,0.03-2.376,0.237-3.226l1.805-7.62c-0.304-0.595-0.456-1.337-0.456-2.224
			c0-1.033,0.261-1.896,0.784-2.588c0.522-0.693,1.16-1.039,1.914-1.039c0.607,0,1.076,0.2,1.404,0.602
			c0.328,0.401,0.492,0.905,0.492,1.513c0,0.377-0.07,0.836-0.21,1.376c-0.14,0.541-0.322,1.167-0.547,1.878
			c-0.225,0.711-0.386,1.279-0.483,1.704c-0.17,0.741-0.03,1.376,0.419,1.905c0.449,0.529,1.045,0.793,1.787,0.793
			c1.3,0,2.367-0.723,3.199-2.169c0.832-1.446,1.249-3.202,1.249-5.268c0-1.592-0.513-2.886-1.54-3.883
			c-1.027-0.996-2.458-1.495-4.293-1.495c-2.054,0-3.716,0.66-4.986,1.978c-1.27,1.319-1.905,2.896-1.905,4.73
			c0,1.094,0.31,2.012,0.93,2.753c0.207,0.243,0.273,0.504,0.201,0.783c-0.025,0.073-0.073,0.255-0.146,0.547
			c-0.073,0.291-0.122,0.48-0.146,0.565c-0.097,0.389-0.328,0.511-0.693,0.365c-0.936-0.389-1.647-1.063-2.133-2.023
			c-0.486-0.96-0.729-2.072-0.729-3.336c0-0.814,0.13-1.629,0.392-2.443s0.668-1.601,1.221-2.361
			c0.553-0.759,1.215-1.431,1.987-2.014c0.772-0.583,1.711-1.051,2.816-1.404c1.106-0.352,2.297-0.528,3.573-0.528
			c1.726,0,3.275,0.383,4.648,1.148c1.373,0.766,2.421,1.756,3.145,2.972c0.723,1.215,1.085,2.515,1.085,3.901
			c0,1.823-0.316,3.464-0.948,4.922c-0.632,1.458-1.525,2.604-2.68,3.436c-1.155,0.832-2.467,1.249-3.938,1.249
			c-0.741,0-1.434-0.173-2.078-0.52c-0.644-0.346-1.088-0.757-1.331-1.231c-0.547,2.151-0.875,3.433-0.984,3.846
			c-0.231,0.863-0.705,1.859-1.422,2.99c1.3,0.389,2.625,0.583,3.974,0.583c2.54,0,4.882-0.626,7.027-1.877
			c2.145-1.252,3.843-2.95,5.095-5.095c1.252-2.145,1.878-4.487,1.878-7.027c0-2.54-0.626-4.882-1.878-7.027
			C25.636,5.685,23.937,3.987,21.793,2.735z"/>
	</g>
</g>
</svg>
