<?xml version="1.0" encoding="UTF-8"?>
<svg width="33px" height="33px" viewBox="0 0 33 33" version="1.1" xmlns="http://www.w3.org/2000/svg" xmlns:xlink="http://www.w3.org/1999/xlink">
    <!-- Generator: Sketch 49.3 (51167) - http://www.bohemiancoding.com/sketch -->
    <title>Shape</title>
    <desc>Created with Sketch.</desc>
    <defs>
        <filter x="-0.5%" y="-2.3%" width="101.0%" height="106.5%" filterUnits="objectBoundingBox" id="filter-1">
            <feOffset dx="0" dy="2" in="SourceAlpha" result="shadowOffsetOuter1"></feOffset>
            <feGaussianBlur stdDeviation="2" in="shadowOffsetOuter1" result="shadowBlurOuter1"></feGaussianBlur>
            <feColorMatrix values="0 0 0 0 0.576470588   0 0 0 0 0.576470588   0 0 0 0 0.576470588  0 0 0 0.35 0" type="matrix" in="shadowBlurOuter1" result="shadowMatrixOuter1"></feColorMatrix>
            <feMerge>
                <feMergeNode in="shadowMatrixOuter1"></feMergeNode>
                <feMergeNode in="SourceGraphic"></feMergeNode>
            </feMerge>
        </filter>
    </defs>
    <g id="TMBI---Comps" stroke="none" stroke-width="1" fill="none" fill-rule="evenodd">
        <g id="Desktop-Header" transform="translate(-1320.000000, -1734.000000)" fill="#FFFFFF" fill-rule="nonzero" stroke="#FFFFFF">
            <g id="FHM---Header-(desktop)-Copy" filter="url(#filter-1)" transform="translate(0.000000, 1561.000000)">
                <g id="Group-4" transform="translate(989.000000, 168.000000)">
                    <g id="002-magnifying-glass-1" transform="translate(336.000000, 8.000000)">
                        <path d="M22.7183673,21.3665306 L17.1889796,15.8371429 C18.5595918,14.1661224 19.3857143,12.0257143 19.3857143,9.69285714 C19.3857143,4.34183673 15.0438776,0 9.69285714,0 C4.33714286,0 0,4.34183673 0,9.69285714 C0,15.0438776 4.33714286,19.3857143 9.69285714,19.3857143 C12.0257143,19.3857143 14.1614286,18.5642857 15.832449,17.1936735 L21.3618367,22.7183673 C21.7373469,23.0938776 22.3428571,23.0938776 22.7183673,22.7183673 C23.0938776,22.347551 23.0938776,21.7373469 22.7183673,21.3665306 Z M9.69285714,17.4565306 C5.40734694,17.4565306 1.9244898,13.9736735 1.9244898,9.69285714 C1.9244898,5.41204082 5.40734694,1.9244898 9.69285714,1.9244898 C13.9736735,1.9244898 17.4612245,5.41204082 17.4612245,9.69285714 C17.4612245,13.9736735 13.9736735,17.4565306 9.69285714,17.4565306 Z" id="Shape"></path>
                    </g>
                </g>
            </g>
        </g>
    </g>
</svg>