<?xml version="1.0" encoding="utf-8"?>
<!-- Generator: Adobe Illustrator 17.0.0, SVG Export Plug-In . SVG Version: 6.00 Build 0)  -->
<!DOCTYPE svg PUBLIC "-//W3C//DTD SVG 1.1//EN" "http://www.w3.org/Graphics/SVG/1.1/DTD/svg11.dtd">
<svg version="1.1" id="Layer_1" xmlns="http://www.w3.org/2000/svg" xmlns:xlink="http://www.w3.org/1999/xlink" x="0px" y="0px"
	 width="24px" height="24px" viewBox="7.5 5.5 24 24" enable-background="new 7.5 5.5 24 24" xml:space="preserve">
<path id="Shape" fill="#444444" stroke="#444444" d="M30.718,27.367l-5.529-5.529c1.371-1.671,2.197-3.811,2.197-6.144
	c0-5.351-4.342-9.693-9.693-9.693C12.337,6,8,10.342,8,15.693s4.337,9.693,9.693,9.693c2.333,0,4.469-0.821,6.14-2.192l5.529,5.525
	c0.376,0.376,0.981,0.376,1.357,0C31.094,28.348,31.094,27.737,30.718,27.367z M17.693,23.457c-4.286,0-7.768-3.483-7.768-7.764
	s3.483-7.768,7.768-7.768c4.281,0,7.768,3.488,7.768,7.768S21.974,23.457,17.693,23.457z"/>
</svg>
