<?xml version="1.0" encoding="utf-8"?>
<!-- Generator: Adobe Illustrator 23.0.1, SVG Export Plug-In . SVG Version: 6.00 Build 0)  -->
<svg version="1.1" id="Layer_1" xmlns="http://www.w3.org/2000/svg" xmlns:xlink="http://www.w3.org/1999/xlink" x="0px" y="0px"
	 viewBox="0 0 32 32" style="enable-background:new 0 0 32 32;" xml:space="preserve">
<style type="text/css">
	.st0{fill:#808080;}
</style>
<g>
	<g>
		<path class="st0" d="M30.612,7.652c-1.031,0.457-2.136,0.766-3.298,0.905c1.186-0.71,2.094-1.837,2.525-3.176
			c-1.113,0.658-2.341,1.136-3.65,1.395c-1.048-1.118-2.539-1.814-4.192-1.814c-3.172,0-5.744,2.572-5.744,5.742
			c0,0.45,0.051,0.889,0.149,1.309c-4.773-0.24-9.006-2.527-11.838-6.001C4.067,6.857,3.786,7.844,3.786,8.897
			c0,1.993,1.015,3.751,2.555,4.78c-0.941-0.031-1.827-0.29-2.602-0.721v0.072c0,2.782,1.981,5.104,4.607,5.632
			c-0.481,0.129-0.989,0.201-1.513,0.201c-0.371,0-0.73-0.037-1.081-0.107c0.731,2.283,2.852,3.944,5.365,3.989
			c-1.965,1.54-4.442,2.455-7.133,2.455c-0.464,0-0.92-0.028-1.37-0.079c2.542,1.632,5.56,2.584,8.804,2.584
			c10.566,0,16.342-8.752,16.342-16.342l-0.019-0.744C28.867,9.814,29.843,8.803,30.612,7.652z"/>
	</g>
</g>
</svg>
