<?xml version="1.0" encoding="utf-8"?>
<!-- Generator: Adobe Illustrator 23.0.1, SVG Export Plug-In . SVG Version: 6.00 Build 0)  -->
<svg version="1.1" id="Layer_1" xmlns="http://www.w3.org/2000/svg" xmlns:xlink="http://www.w3.org/1999/xlink" x="0px" y="0px"
	 viewBox="0 0 32 32" style="enable-background:new 0 0 32 32;" xml:space="preserve">
<style type="text/css">
	.st0{fill:#808080;}
</style>
<g>
	<g>
		<g>
			<path class="st0" d="M18.43,20.141c-0.237,0-0.476,0.112-0.715,0.346v4.812c0.239,0.238,0.478,0.353,0.715,0.353
				c0.412,0,0.623-0.353,0.623-1.065v-3.368C19.053,20.505,18.842,20.141,18.43,20.141z"/>
			<path class="st0" d="M23.665,20.141c-0.478,0-0.718,0.364-0.718,1.095v0.731h1.432v-0.731
				C24.38,20.505,24.141,20.141,23.665,20.141z"/>
			<g>
				<path class="st0" d="M26.638,14.72c-0.899-0.936-1.906-0.94-2.369-0.994c-3.306-0.236-8.264-0.236-8.264-0.236h-0.011
					c0,0-4.958,0-8.267,0.236c-0.461,0.054-1.467,0.058-2.366,0.994c-0.708,0.714-0.939,2.331-0.939,2.331s-0.234,1.9-0.234,3.8
					v1.782c0,1.899,0.234,3.8,0.234,3.8s0.231,1.617,0.939,2.328c0.9,0.936,2.079,0.906,2.604,1.004C9.857,29.945,16,30,16,30
					s4.964-0.007,8.27-0.246c0.462-0.053,1.47-0.058,2.369-0.994c0.708-0.711,0.939-2.328,0.939-2.328s0.235-1.901,0.235-3.8v-1.782
					c0-1.9-0.235-3.8-0.235-3.8S27.347,15.434,26.638,14.72z M9.393,26.842H7.8v-9.101H6.115v-1.49h4.994v1.49H9.394L9.393,26.842
					L9.393,26.842z M15.042,26.842h-1.434V25.98c-0.568,0.651-1.111,0.972-1.637,0.972c-0.461,0-0.779-0.189-0.924-0.589
					c-0.078-0.239-0.125-0.616-0.125-1.174V18.95h1.433v5.81c0,0.335,0,0.509,0.01,0.556c0.036,0.222,0.147,0.336,0.337,0.336
					c0.288,0,0.587-0.222,0.905-0.671V18.95h1.434L15.042,26.842L15.042,26.842z M20.485,24.475c0,0.728-0.048,1.254-0.145,1.589
					c-0.192,0.588-0.574,0.888-1.143,0.888c-0.511,0-1.004-0.283-1.482-0.875v0.764h-1.434V16.251h1.434v3.458
					c0.462-0.568,0.953-0.856,1.482-0.856c0.568,0,0.951,0.301,1.143,0.891c0.097,0.319,0.145,0.839,0.145,1.587
					C20.485,21.331,20.485,24.475,20.485,24.475z M25.813,23.156h-2.866v1.4c0,0.731,0.24,1.096,0.732,1.096
					c0.353,0,0.558-0.192,0.64-0.574c0.013-0.078,0.032-0.397,0.032-0.971h1.462v0.21c0,0.46-0.019,0.777-0.031,0.921
					c-0.047,0.316-0.161,0.603-0.335,0.855c-0.396,0.574-0.984,0.857-1.734,0.857c-0.749,0-1.319-0.27-1.733-0.811
					c-0.304-0.395-0.46-1.018-0.46-1.855V21.52c0-0.843,0.139-1.458,0.443-1.859c0.414-0.54,0.984-0.809,1.716-0.809
					c0.719,0,1.289,0.269,1.69,0.809c0.3,0.401,0.444,1.016,0.444,1.859L25.813,23.156L25.813,23.156z"/>
				<path class="st0" d="M12.218,12.701V8.366L14.149,2h-1.623L11.43,6.202L10.291,2h-1.69c0.34,0.992,0.692,1.988,1.031,2.982
					c0.514,1.492,0.836,2.617,0.982,3.384v4.335L12.218,12.701L12.218,12.701z"/>
				<path class="st0" d="M15.986,12.811c0.724,0,1.287-0.273,1.688-0.816c0.303-0.398,0.45-1.026,0.45-1.876V7.326
					c0-0.851-0.147-1.473-0.45-1.876c-0.401-0.547-0.963-0.818-1.688-0.818c-0.724,0-1.288,0.271-1.686,0.818
					c-0.309,0.403-0.452,1.025-0.452,1.876v2.794c0,0.849,0.143,1.477,0.452,1.876C14.698,12.538,15.262,12.811,15.986,12.811z
					 M15.294,7.036c0-0.738,0.225-1.106,0.692-1.106c0.465,0,0.688,0.369,0.688,1.106v3.355c0,0.738-0.224,1.107-0.688,1.107
					c-0.467,0-0.692-0.369-0.692-1.107C15.294,10.392,15.294,7.036,15.294,7.036z"/>
				<path class="st0" d="M23.397,12.701V4.725H21.95v6.097c-0.321,0.452-0.624,0.677-0.913,0.677c-0.195,0-0.31-0.116-0.34-0.338
					c-0.018-0.048-0.018-0.223-0.018-0.562V4.725h-1.443v6.308c0,0.564,0.047,0.945,0.128,1.186
					c0.145,0.403,0.467,0.592,0.933,0.592c0.527,0,1.076-0.32,1.654-0.98v0.87C21.95,12.701,23.397,12.701,23.397,12.701z"/>
			</g>
		</g>
	</g>
</g>
</svg>
